<?xml version="1.0" standalone="no"?>
<!DOCTYPE svg PUBLIC "-//W3C//DTD SVG 20010904//EN"
 "http://www.w3.org/TR/2001/REC-SVG-20010904/DTD/svg10.dtd">
<svg version="1.0" xmlns="http://www.w3.org/2000/svg"
 width="450.000000pt" height="450.000000pt" viewBox="0 0 450.000000 450.000000"
 preserveAspectRatio="xMidYMid meet">
<metadata>
Created by potrace 1.11, written by Peter Selinger 2001-2013
</metadata>
<g transform="translate(0.000000,450.000000) scale(0.100000,-0.100000)"
fill="#000000" stroke="none">
<path d="M1993 4354 c-5 -13 -8 -13 -15 -2 -7 9 -8 6 -5 -11 7 -31 -9 -74 -25
-65 -8 5 -9 2 -5 -9 3 -9 1 -19 -5 -23 -11 -7 -60 49 -68 79 -8 29 -24 25 -35
-10 -5 -18 -13 -33 -18 -33 -4 0 -5 -4 -2 -10 3 -5 2 -10 -4 -10 -5 0 -12 12
-14 28 -3 22 -4 20 -6 -10 0 -21 -6 -38 -12 -38 -6 0 -9 9 -6 20 7 28 -9 25
-29 -5 -9 -14 -19 -23 -22 -21 -3 3 -14 -12 -24 -34 -21 -43 -44 -55 -32 -17
3 12 3 19 -1 15 -3 -3 -12 -28 -19 -55 -7 -26 -18 -47 -25 -45 -6 1 -11 -5
-11 -13 0 -8 -7 -15 -15 -15 -9 0 -15 -10 -15 -26 0 -20 -4 -25 -17 -20 -9 4
-20 1 -25 -6 -6 -10 -10 -10 -18 2 -7 11 -10 7 -10 -17 0 -18 -5 -33 -10 -33
-6 0 -18 -19 -27 -42 -13 -32 -18 -37 -23 -24 -4 14 -10 7 -20 -25 -8 -24 -22
-55 -32 -68 -10 -13 -18 -30 -18 -37 0 -7 -7 -17 -15 -21 -8 -5 -19 -33 -25
-62 -5 -30 -14 -59 -19 -65 -4 -6 -8 -18 -8 -27 0 -9 -7 -33 -17 -53 -14 -30
-16 -59 -12 -183 5 -172 3 -162 17 -143 8 12 9 10 4 -7 -17 -60 -16 -76 1 -69
15 6 15 4 3 -11 -8 -9 -9 -14 -3 -10 7 4 11 -5 11 -23 0 -16 -4 -27 -10 -23
-5 3 -7 -5 -5 -18 2 -15 11 -25 23 -27 13 -2 16 0 8 5 -6 5 -10 23 -7 43 6 56
10 70 22 82 8 8 11 6 9 -11 -1 -11 -5 -21 -9 -21 -4 0 -8 -8 -8 -17 0 -14 2
-15 9 -4 7 11 11 10 20 -5 6 -11 11 -16 11 -11 0 9 35 -25 49 -49 9 -17 10
-17 11 -2 0 9 -4 20 -10 23 -5 3 -10 16 -9 28 0 21 1 21 10 2 7 -16 9 -14 6
13 -2 17 0 32 5 32 4 0 8 8 8 18 0 14 -2 15 -10 2 -8 -12 -11 -11 -17 9 -6 23
-7 24 -14 5 -6 -16 -8 -15 -8 8 -1 15 3 29 9 33 5 3 7 12 4 20 -4 10 0 13 13
11 12 -3 23 7 34 30 9 18 12 31 8 28 -5 -3 -9 2 -9 10 0 9 4 16 9 16 5 0 9 16
9 35 0 19 -4 35 -8 35 -12 0 7 64 20 68 5 2 19 23 29 48 11 24 23 44 26 44 3
0 3 -4 0 -10 -3 -5 -4 -10 0 -10 7 0 29 52 26 64 -1 5 7 6 18 3 13 -3 18 0 15
7 -3 7 7 18 21 24 20 9 25 17 20 32 -4 13 -2 20 7 20 10 0 9 3 -2 10 -8 5 -11
12 -7 16 3 4 14 1 23 -7 16 -13 17 -12 12 7 -5 19 -2 22 19 19 18 -2 23 1 18
13 -5 14 -4 14 12 0 24 -21 43 -2 44 44 0 27 2 29 8 13 6 -16 9 -10 12 23 5
43 5 44 -13 22 -18 -22 -18 -22 -18 19 0 39 29 113 48 125 5 3 9 -8 8 -24 -1
-17 -4 -30 -8 -30 -3 0 -6 -44 -6 -97 0 -77 2 -92 10 -70 5 15 13 25 16 23 4
-2 5 25 4 61 -2 40 1 70 8 77 8 8 10 0 5 -34 l-5 -45 20 40 c11 22 20 45 20
51 0 5 17 26 37 45 21 18 30 25 21 14 -22 -27 -48 -202 -28 -190 4 2 15 -6 25
-17 l18 -21 13 29 c10 24 13 25 14 9 l1 -20 9 20 c8 19 9 19 9 1 1 -15 4 -16
16 -6 13 11 15 10 9 -6 -5 -17 -4 -17 5 -2 14 20 88 63 127 72 16 4 38 9 49
12 18 5 18 4 -3 -11 -12 -9 -35 -19 -50 -21 -15 -3 -33 -13 -40 -22 -7 -9 -15
-16 -17 -14 -14 7 -24 0 -18 -14 3 -9 0 -20 -8 -25 -11 -7 -11 -9 4 -9 9 0 17
4 17 9 0 11 212 121 232 121 7 0 -2 -8 -19 -17 -18 -10 -44 -28 -58 -40 -14
-13 -25 -18 -25 -11 0 6 -14 -1 -30 -17 -17 -16 -40 -30 -52 -30 -12 0 -23 -7
-26 -15 -5 -13 -3 -13 12 -1 15 13 19 13 26 1 7 -12 17 -11 64 3 30 10 58 22
61 27 4 6 11 10 17 10 6 0 1 -12 -13 -26 l-24 -25 28 10 c15 6 38 18 52 27 20
13 28 14 40 4 13 -11 14 -10 10 2 -4 10 2 18 17 23 41 13 49 14 46 3 -2 -5 -6
-9 -8 -8 -7 3 -95 -79 -90 -83 3 -2 34 7 70 22 41 17 69 34 76 49 19 38 30 45
51 33 14 -8 14 -11 3 -11 -17 -1 -67 -60 -51 -60 6 0 11 5 11 12 0 6 3 8 6 5
4 -3 15 -2 25 3 11 6 26 6 41 1 17 -7 19 -10 6 -10 -10 -1 -18 -6 -18 -12 0
-7 10 -9 25 -5 16 4 25 2 25 -5 0 -8 4 -8 14 0 10 8 16 9 21 1 4 -7 17 -3 36
11 17 12 33 18 36 15 4 -3 1 -6 -5 -6 -7 0 -12 -9 -12 -20 0 -14 7 -20 24 -20
35 0 56 10 56 26 0 17 -17 19 -22 2 -2 -6 -10 -8 -16 -4 -9 5 -8 11 3 23 9 9
13 23 10 34 -4 13 -2 19 9 19 8 0 18 4 21 10 4 6 -1 7 -11 3 -14 -5 -15 -3 -5
18 11 21 9 21 -9 -3 -12 -16 -28 -28 -36 -28 -17 0 -18 12 -2 28 10 10 10 14
0 21 -10 6 -7 14 10 37 19 26 20 27 2 12 -11 -10 -23 -18 -26 -18 -11 0 -16
85 -6 98 8 9 8 16 -2 25 -10 9 -11 9 -6 0 4 -7 1 -22 -7 -33 -14 -21 -14 -21
-20 1 -3 12 0 34 8 48 12 24 12 27 -5 28 -10 1 -24 -5 -31 -13 -18 -22 -29
-17 -30 14 -1 16 -3 20 -6 10 -2 -10 -8 -18 -13 -18 -5 0 -7 -7 -4 -15 4 -8 2
-15 -4 -15 -16 0 -21 25 -12 66 5 21 7 40 4 43 -2 2 -4 -1 -4 -8 0 -7 -5 -9
-10 -6 -7 4 -8 -3 -4 -21 5 -19 4 -25 -5 -20 -6 4 -9 12 -6 17 4 5 1 9 -5 9
-7 0 -9 8 -4 22 6 21 5 22 -11 8 -17 -14 -18 -12 -12 40 5 44 4 52 -6 39 -7
-9 -22 -21 -34 -28 -13 -6 -23 -18 -23 -25 0 -8 -7 -20 -16 -27 -15 -12 -16
-11 -11 6 4 11 9 40 11 65 4 34 3 39 -4 23 -5 -13 -13 -23 -18 -23 -4 0 -9
-15 -10 -32 -2 -18 -7 -37 -13 -43 -8 -7 -10 -4 -7 10 2 11 -2 25 -10 30 -7 6
-15 32 -17 59 -6 60 -11 67 -20 26 -5 -21 -12 -30 -20 -26 -9 3 -12 0 -8 -10
3 -8 -1 -14 -9 -14 -10 0 -13 10 -10 34 4 30 2 34 -16 30 -12 -4 -22 0 -25 10
-4 9 -2 16 3 16 6 0 10 4 10 9 0 5 -13 4 -29 -2 -24 -9 -32 -8 -46 6 -21 21
-32 22 -15 2 11 -13 10 -18 -2 -28 -9 -7 -18 -19 -21 -27 -3 -11 -10 -6 -23
17 -11 18 -23 33 -28 33 -5 0 -3 -6 3 -14 8 -10 9 -16 1 -21 -6 -3 -7 -11 -4
-17 4 -7 2 -8 -4 -4 -7 4 -12 15 -12 25 0 9 -7 26 -15 37 -14 19 -14 18 -15
-3 0 -12 -9 -27 -21 -33 -19 -11 -20 -10 -9 10 10 19 10 21 -8 16 -16 -6 -19
-3 -14 19 5 28 -5 34 -15 9z m84 -64 c1 -11 -2 -20 -8 -20 -10 0 -12 23 -2 33
9 9 9 10 10 -13z m159 -10 c1 -32 -10 -40 -20 -15 -6 16 2 45 13 45 3 0 6 -14
7 -30z m-352 -16 c8 -22 7 -34 -3 -34 -5 0 -11 11 -13 25 -6 28 6 34 16 9z
m313 -24 c1 -11 -2 -20 -8 -20 -5 0 -9 9 -9 20 0 11 4 20 8 20 4 0 8 -9 9 -20z
m-57 -15 c-7 -9 -15 -13 -17 -11 -7 7 7 26 19 26 6 0 6 -6 -2 -15z m200 -7 c0
-16 -3 -19 -11 -11 -6 6 -8 16 -5 22 11 17 16 13 16 -11z m-570 5 c-1 -12 -50
-45 -50 -34 0 5 7 17 16 25 16 17 34 21 34 9z m740 -38 c0 -8 -5 -17 -11 -21
-8 -4 -9 0 -4 15 5 17 3 20 -12 15 -14 -5 -15 -4 -3 4 17 12 30 7 30 -13z
m-147 -34 c17 -6 17 -8 4 -20 -13 -10 -17 -9 -27 8 -11 22 -7 24 23 12z m-283
-36 c-7 -8 -17 -15 -23 -15 -6 0 -2 7 9 15 25 19 30 19 14 0z m-318 -23 c-7
-2 -13 -13 -13 -25 -1 -16 -2 -18 -6 -5 -6 22 18 69 25 48 3 -7 0 -16 -6 -18z
m688 16 c0 -4 -9 -8 -20 -8 -11 0 -20 4 -20 8 0 4 9 8 20 8 11 0 20 -4 20 -8z
m-170 -8 c0 -5 -5 -10 -11 -10 -5 0 -7 5 -4 10 3 6 8 10 11 10 2 0 4 -4 4 -10z
m-260 -3 c0 -2 -15 -16 -32 -33 l-33 -29 29 33 c28 30 36 37 36 29z m226 -36
c-10 -10 -26 -21 -38 -24 -23 -7 -19 -1 19 24 36 23 40 23 19 0z m434 11 c0
-5 -9 -17 -20 -27 -16 -14 -20 -15 -20 -4 0 16 19 39 32 39 4 0 8 -4 8 -8z
m-570 -6 c0 -2 -8 -10 -17 -17 -16 -13 -17 -12 -4 4 13 16 21 21 21 13z m27
-22 c-21 -14 -41 -24 -43 -21 -6 5 56 45 71 46 5 1 -8 -11 -28 -25z m383 16
c0 -5 -5 -10 -11 -10 -5 0 -7 5 -4 10 3 6 8 10 11 10 2 0 4 -4 4 -10z m-610
-10 c-8 -5 -19 -10 -25 -10 -5 0 -3 5 5 10 8 5 20 10 25 10 6 0 3 -5 -5 -10z
m-134 -42 c-6 -23 -12 -35 -14 -26 -3 14 14 68 21 68 2 0 -1 -19 -7 -42z m253
4 c-19 -21 -40 -47 -47 -58 -7 -10 -5 -3 4 16 18 39 52 80 67 80 5 0 -6 -17
-24 -38z m300 -15 c-28 -21 -59 -36 -59 -29 0 9 37 30 54 31 5 1 7 0 5 -2z
m331 -10 c0 -8 -6 -14 -14 -14 -8 0 -12 6 -9 14 3 7 9 13 14 13 5 0 9 -6 9
-13z m-590 0 c0 -2 -10 -12 -22 -23 l-23 -19 19 23 c18 21 26 27 26 19z m50
-22 c-13 -14 -26 -23 -28 -20 -7 7 29 45 41 45 6 0 0 -11 -13 -25z m100 -14
c-5 -11 -15 -23 -21 -27 -6 -3 -3 5 6 20 20 30 30 35 15 7z m-570 -33 c0 -13
3 -34 7 -47 4 -16 2 -22 -4 -18 -13 8 -22 87 -11 87 5 0 8 -10 8 -22z m405
-68 c-3 -5 -11 -10 -16 -10 -6 0 -7 5 -4 10 3 6 11 10 16 10 6 0 7 -4 4 -10z
m-403 -43 c-5 -19 -6 -19 -19 -2 -20 29 -17 48 6 34 12 -8 16 -19 13 -32z
m678 23 c-12 -22 -21 -26 -17 -7 2 10 17 26 25 27 1 0 -2 -9 -8 -20z m-85 -30
c-16 -11 -34 -20 -40 -20 -5 0 4 9 20 20 17 11 35 20 40 20 6 0 -3 -9 -20 -20z
m-812 -515 c-3 -9 -8 -14 -10 -11 -3 3 -2 9 2 15 9 16 15 13 8 -4z"/>
<path d="M1925 4310 c-3 -5 -1 -10 4 -10 6 0 11 5 11 10 0 6 -2 10 -4 10 -3 0
-8 -4 -11 -10z"/>
<path d="M2316 4295 c4 -8 8 -15 10 -15 2 0 4 7 4 15 0 8 -4 15 -10 15 -5 0
-7 -7 -4 -15z"/>
<path d="M1894 3954 c-3 -10 -10 -29 -15 -42 -12 -31 -11 -79 1 -87 7 -4 9 2
5 17 -3 12 1 45 9 73 9 27 13 51 11 53 -3 3 -7 -4 -11 -14z"/>
<path d="M2751 3731 c-21 -6 -22 -8 -7 -20 19 -16 46 -8 46 14 0 16 -2 17 -39
6z"/>
<path d="M2750 3676 c0 -2 8 -10 18 -17 15 -13 16 -12 3 4 -13 16 -21 21 -21
13z"/>
<path d="M1500 3128 c0 -19 2 -20 10 -8 13 19 13 30 0 30 -5 0 -10 -10 -10
-22z"/>
<path d="M2670 3120 c0 -5 5 -10 11 -10 5 0 7 -4 4 -10 -4 -6 6 -10 24 -10 16
0 33 5 36 10 3 6 -3 10 -14 10 -11 0 -23 5 -26 10 -3 6 -13 10 -21 10 -8 0
-14 -4 -14 -10z"/>
<path d="M1460 3094 c0 -8 5 -12 10 -9 6 3 10 10 10 16 0 5 -4 9 -10 9 -5 0
-10 -7 -10 -16z"/>
<path d="M2635 3090 c-3 -5 1 -10 9 -10 8 0 18 5 21 10 3 6 -1 10 -9 10 -8 0
-18 -4 -21 -10z"/>
<path d="M1975 3081 c-7 -12 12 -24 25 -16 11 7 4 25 -10 25 -5 0 -11 -4 -15
-9z"/>
<path d="M1945 3070 c-3 -5 -1 -10 4 -10 6 0 11 5 11 10 0 6 -2 10 -4 10 -3 0
-8 -4 -11 -10z"/>
<path d="M1440 3006 c0 -7 6 -19 14 -25 11 -9 12 -6 8 14 -5 26 -22 35 -22 11z"/>
<path d="M2603 3003 c-29 -6 -48 -29 -32 -39 8 -4 9 -3 5 4 -4 7 -2 12 3 12 6
0 11 -9 11 -20 0 -11 6 -20 13 -20 8 0 8 -3 -2 -9 -10 -6 -3 -9 22 -9 l37 0
-23 19 c-12 10 -16 18 -9 19 6 0 12 -4 12 -10 0 -5 8 -10 18 -10 14 0 15 2 2
10 -13 8 -12 10 3 10 9 0 16 3 16 8 -3 19 3 22 24 11 12 -7 26 -18 30 -25 4
-8 15 -14 24 -14 30 0 -15 37 -65 54 -46 16 -50 17 -89 9z"/>
<path d="M1340 2991 c0 -5 7 -14 15 -21 16 -14 18 -10 9 14 -6 17 -24 22 -24
7z"/>
<path d="M1980 2960 c-19 -5 -57 -21 -84 -36 -37 -21 -45 -29 -33 -35 19 -11
47 -1 47 17 0 8 5 14 10 14 6 0 10 -7 10 -15 0 -8 6 -15 13 -16 6 0 19 -2 28
-4 9 -1 22 1 30 5 10 7 10 11 0 24 -11 13 -11 16 3 16 9 0 16 5 16 11 0 5 5 7
11 3 7 -4 10 -1 7 6 -6 18 -16 20 -58 10z"/>
<path d="M1444 2899 c1 -16 4 -29 8 -29 3 0 11 -12 16 -27 l10 -28 -1 33 c0
17 -4 32 -9 32 -4 0 -8 5 -8 11 0 5 5 7 10 4 16 -10 11 -1 -8 16 -18 15 -19
15 -18 -12z"/>
<path d="M1279 2753 c-5 -14 -8 -34 -7 -42 2 -9 9 3 15 27 12 47 8 56 -8 15z"/>
<path d="M1415 2720 c4 -14 7 -39 9 -57 2 -44 12 -50 20 -12 4 24 1 40 -15 63
-19 28 -20 29 -14 6z"/>
<path d="M1258 2673 c-2 -10 -1 -29 3 -43 6 -20 7 -17 8 18 1 44 -4 54 -11 25z"/>
<path d="M1456 2544 c-4 -10 -2 -22 3 -27 7 -7 13 -5 17 7 4 10 2 22 -3 27 -7
7 -13 5 -17 -7z"/>
<path d="M2331 2543 c0 -5 4 -16 8 -27 7 -17 8 -17 24 -1 10 9 15 21 12 26 -7
11 -45 12 -44 2z"/>
<path d="M2390 2520 c0 -5 5 -10 11 -10 5 0 7 5 4 10 -3 6 -8 10 -11 10 -2 0
-4 -4 -4 -10z"/>
<path d="M1556 2443 c4 -18 2 -46 -4 -63 -7 -18 -7 -30 -1 -30 5 0 9 -7 9 -15
0 -19 25 -61 59 -97 13 -16 21 -28 17 -28 -5 0 -1 -11 8 -25 9 -14 14 -25 11
-25 -4 0 2 -12 13 -27 10 -16 24 -42 31 -59 28 -70 116 -137 136 -104 4 6 -1
7 -11 3 -12 -5 -16 -2 -13 8 5 15 -36 61 -45 51 -3 -3 -6 2 -6 11 0 9 -4 17
-9 17 -11 0 -44 50 -44 67 0 7 -3 10 -7 8 -3 -2 -12 0 -20 6 -13 7 -13 9 0 9
12 1 11 3 -2 11 -10 5 -18 18 -18 28 0 10 -3 21 -7 25 -4 3 -8 12 -9 19 -2 7
-10 32 -19 57 -9 24 -14 52 -12 62 3 10 2 16 -3 13 -7 -4 -17 29 -22 73 -1 6
-4 10 -6 7 -3 -3 -11 3 -18 13 -12 15 -13 13 -8 -15z"/>
<path d="M2569 2328 c0 -2 -2 -13 -4 -24 -11 -56 -24 -73 -52 -71 -15 2 -33
-3 -39 -11 -6 -8 -34 -16 -65 -18 -30 -2 -59 -6 -66 -8 -7 -3 -15 -1 -19 5 -3
6 -16 9 -27 8 -39 -3 -47 1 -47 18 0 15 -2 15 -14 -2 -11 -15 -17 -17 -28 -7
-8 6 -18 9 -21 5 -12 -11 -37 19 -37 44 0 29 -21 39 -50 23 -18 -9 -19 -14 -9
-26 37 -44 142 -75 273 -80 99 -4 126 4 198 57 57 43 75 68 56 80 -12 8 -47
12 -49 7z"/>
<path d="M2175 2280 c3 -5 8 -10 11 -10 2 0 4 5 4 10 0 6 -5 10 -11 10 -5 0
-7 -4 -4 -10z"/>
<path d="M1473 2014 c-43 -21 -56 -39 -86 -109 -13 -33 -46 -107 -72 -165 -48
-105 -49 -105 -149 -188 -56 -45 -149 -126 -207 -180 -58 -53 -143 -130 -190
-171 -128 -112 -203 -186 -291 -285 -44 -50 -135 -145 -202 -211 -104 -103
-128 -132 -165 -205 -23 -47 -46 -89 -51 -95 -26 -32 -52 -158 -57 -277 l-6
-128 1497 0 c1189 0 1496 3 1497 13 6 56 3 117 -13 276 -15 147 -17 198 -9
252 24 154 5 426 -39 554 -26 75 -112 216 -155 254 -20 17 -53 40 -75 51 -35
18 -46 33 -85 116 -44 96 -65 112 -65 52 0 -18 -16 -97 -35 -177 -20 -80 -40
-164 -45 -186 -6 -25 -6 -43 0 -49 16 -16 11 -28 -7 -22 -14 4 -24 -8 -45 -57
-15 -34 -30 -72 -33 -84 -7 -26 -18 -29 -33 -10 -7 8 -6 18 4 31 23 32 17 69
-16 101 -16 16 -30 34 -30 41 0 7 -30 30 -67 51 -77 42 -347 223 -438 292 -92
70 -254 237 -260 268 -19 92 -38 152 -47 147 -6 -4 -8 1 -5 12 8 28 19 104 15
104 -1 0 -17 -8 -35 -16z m1049 -936 c-6 -6 -15 -8 -19 -4 -4 4 -1 11 7 16 19
12 27 3 12 -12z m-229 -22 c-5 -23 -38 -45 -50 -33 -7 8 39 67 47 62 4 -3 5
-16 3 -29z m-115 -98 c3 -29 -25 -52 -52 -42 -41 16 -22 77 22 72 21 -2 28 -9
30 -30z m404 -763 c14 -32 -3 -75 -31 -75 -28 0 -45 83 -18 93 25 11 38 6 49
-18z"/>
<path d="M2031 1821 c13 -10 27 -18 31 -17 3 0 18 -10 32 -23 14 -14 28 -22
31 -19 3 3 -10 17 -28 31 -19 14 -37 24 -39 21 -3 -2 -11 2 -18 11 -7 8 -17
15 -23 15 -5 0 1 -8 14 -19z"/>
<path d="M2150 1750 c8 -5 22 -9 30 -9 10 0 8 3 -5 9 -27 12 -43 12 -25 0z"/>
<path d="M2208 1723 c6 -2 18 -2 25 0 6 3 1 5 -13 5 -14 0 -19 -2 -12 -5z"/>
</g>
</svg>
